<mxfile host="app.diagrams.net" modified="2023-12-07T17:47:54.398Z" agent="Mozilla/5.0 (Windows NT 10.0; Win64; x64) AppleWebKit/537.36 (KHTML, like Gecko) Chrome/119.0.0.0 Safari/537.36" etag="hl-D25ksSpDv2FHZPCD3" version="22.1.7" type="github">
  <diagram name="Сторінка-1" id="qO3rT81U_9Z_8zAuuo-b">
    <mxGraphModel dx="2724" dy="1064" grid="0" gridSize="10" guides="1" tooltips="1" connect="1" arrows="1" fold="1" page="1" pageScale="1" pageWidth="827" pageHeight="1169" math="0" shadow="0">
      <root>
        <mxCell id="0" />
        <mxCell id="1" parent="0" />
        <mxCell id="UqCWuO_ODy2JC3YevqKW-23" style="edgeStyle=orthogonalEdgeStyle;rounded=0;orthogonalLoop=1;jettySize=auto;html=1;" edge="1" parent="1" target="UqCWuO_ODy2JC3YevqKW-25">
          <mxGeometry relative="1" as="geometry">
            <mxPoint x="282" y="380" as="sourcePoint" />
            <Array as="points">
              <mxPoint x="339" y="380" />
            </Array>
          </mxGeometry>
        </mxCell>
        <mxCell id="UqCWuO_ODy2JC3YevqKW-7" style="edgeStyle=orthogonalEdgeStyle;rounded=0;orthogonalLoop=1;jettySize=auto;html=1;exitX=0.5;exitY=1;exitDx=0;exitDy=0;entryX=0.5;entryY=0;entryDx=0;entryDy=0;" edge="1" parent="1" source="UqCWuO_ODy2JC3YevqKW-1" target="UqCWuO_ODy2JC3YevqKW-2">
          <mxGeometry relative="1" as="geometry" />
        </mxCell>
        <mxCell id="UqCWuO_ODy2JC3YevqKW-1" value="&lt;b&gt;Start&lt;/b&gt;" style="ellipse;whiteSpace=wrap;html=1;fillColor=#fff2cc;strokeColor=#d6b656;" vertex="1" parent="1">
          <mxGeometry x="320" y="30" width="130" height="60" as="geometry" />
        </mxCell>
        <mxCell id="UqCWuO_ODy2JC3YevqKW-8" style="edgeStyle=orthogonalEdgeStyle;rounded=0;orthogonalLoop=1;jettySize=auto;html=1;exitX=0.5;exitY=1;exitDx=0;exitDy=0;entryX=0.5;entryY=0;entryDx=0;entryDy=0;" edge="1" parent="1" source="UqCWuO_ODy2JC3YevqKW-2" target="UqCWuO_ODy2JC3YevqKW-3">
          <mxGeometry relative="1" as="geometry" />
        </mxCell>
        <mxCell id="UqCWuO_ODy2JC3YevqKW-2" value="&lt;b&gt;Input N&lt;/b&gt;" style="shape=parallelogram;perimeter=parallelogramPerimeter;whiteSpace=wrap;html=1;fixedSize=1;fillColor=#dae8fc;strokeColor=#6c8ebf;" vertex="1" parent="1">
          <mxGeometry x="315" y="110" width="140" height="50" as="geometry" />
        </mxCell>
        <mxCell id="UqCWuO_ODy2JC3YevqKW-10" style="edgeStyle=orthogonalEdgeStyle;rounded=0;orthogonalLoop=1;jettySize=auto;html=1;" edge="1" parent="1" source="UqCWuO_ODy2JC3YevqKW-3" target="UqCWuO_ODy2JC3YevqKW-5">
          <mxGeometry relative="1" as="geometry">
            <Array as="points">
              <mxPoint x="500" y="220" />
            </Array>
          </mxGeometry>
        </mxCell>
        <mxCell id="UqCWuO_ODy2JC3YevqKW-15" style="edgeStyle=orthogonalEdgeStyle;rounded=0;orthogonalLoop=1;jettySize=auto;html=1;exitX=0;exitY=0.5;exitDx=0;exitDy=0;entryX=0.5;entryY=0;entryDx=0;entryDy=0;" edge="1" parent="1" source="UqCWuO_ODy2JC3YevqKW-3" target="UqCWuO_ODy2JC3YevqKW-13">
          <mxGeometry relative="1" as="geometry" />
        </mxCell>
        <mxCell id="UqCWuO_ODy2JC3YevqKW-3" value="&lt;b&gt;i&amp;lt;N?&lt;/b&gt;" style="rhombus;whiteSpace=wrap;html=1;fillColor=#ffe6cc;strokeColor=#d79b00;" vertex="1" parent="1">
          <mxGeometry x="327.5" y="180" width="115" height="80" as="geometry" />
        </mxCell>
        <mxCell id="UqCWuO_ODy2JC3YevqKW-11" style="edgeStyle=orthogonalEdgeStyle;rounded=0;orthogonalLoop=1;jettySize=auto;html=1;exitX=1;exitY=0.5;exitDx=0;exitDy=0;entryX=0;entryY=0.5;entryDx=0;entryDy=0;" edge="1" parent="1" source="UqCWuO_ODy2JC3YevqKW-5" target="UqCWuO_ODy2JC3YevqKW-6">
          <mxGeometry relative="1" as="geometry" />
        </mxCell>
        <mxCell id="UqCWuO_ODy2JC3YevqKW-5" value="&lt;b&gt;Input numbers[i]&lt;/b&gt;" style="shape=parallelogram;perimeter=parallelogramPerimeter;whiteSpace=wrap;html=1;fixedSize=1;fillColor=#dae8fc;strokeColor=#6c8ebf;" vertex="1" parent="1">
          <mxGeometry x="430" y="260" width="140" height="50" as="geometry" />
        </mxCell>
        <mxCell id="UqCWuO_ODy2JC3YevqKW-12" style="edgeStyle=orthogonalEdgeStyle;rounded=0;orthogonalLoop=1;jettySize=auto;html=1;exitX=0.5;exitY=0;exitDx=0;exitDy=0;" edge="1" parent="1" source="UqCWuO_ODy2JC3YevqKW-6">
          <mxGeometry relative="1" as="geometry">
            <mxPoint x="390" y="170" as="targetPoint" />
            <Array as="points">
              <mxPoint x="660" y="170" />
            </Array>
          </mxGeometry>
        </mxCell>
        <mxCell id="UqCWuO_ODy2JC3YevqKW-6" value="&lt;b&gt;i++&lt;/b&gt;" style="rounded=0;whiteSpace=wrap;html=1;fillColor=#d5e8d4;strokeColor=#82b366;" vertex="1" parent="1">
          <mxGeometry x="600" y="260" width="120" height="50" as="geometry" />
        </mxCell>
        <mxCell id="UqCWuO_ODy2JC3YevqKW-19" style="edgeStyle=orthogonalEdgeStyle;rounded=0;orthogonalLoop=1;jettySize=auto;html=1;exitX=0.5;exitY=1;exitDx=0;exitDy=0;entryX=0.5;entryY=0;entryDx=0;entryDy=0;" edge="1" parent="1" source="UqCWuO_ODy2JC3YevqKW-13" target="UqCWuO_ODy2JC3YevqKW-18">
          <mxGeometry relative="1" as="geometry" />
        </mxCell>
        <mxCell id="UqCWuO_ODy2JC3YevqKW-13" value="&lt;font style=&quot;font-size: 11px;&quot;&gt;&lt;b&gt;vector&amp;lt;int&amp;gt; Result = sortedNumbers(numbers)&lt;/b&gt;&lt;/font&gt;" style="shape=process;whiteSpace=wrap;html=1;backgroundOutline=1;fillColor=#e1d5e7;strokeColor=#9673a6;" vertex="1" parent="1">
          <mxGeometry x="160" y="260" width="140" height="50" as="geometry" />
        </mxCell>
        <mxCell id="UqCWuO_ODy2JC3YevqKW-16" value="YES" style="text;html=1;strokeColor=none;fillColor=none;align=center;verticalAlign=middle;whiteSpace=wrap;rounded=0;" vertex="1" parent="1">
          <mxGeometry x="440" y="200" width="60" height="30" as="geometry" />
        </mxCell>
        <mxCell id="UqCWuO_ODy2JC3YevqKW-17" value="NO" style="text;html=1;strokeColor=none;fillColor=none;align=center;verticalAlign=middle;whiteSpace=wrap;rounded=0;" vertex="1" parent="1">
          <mxGeometry x="255" y="200" width="60" height="30" as="geometry" />
        </mxCell>
        <mxCell id="UqCWuO_ODy2JC3YevqKW-21" style="edgeStyle=orthogonalEdgeStyle;rounded=0;orthogonalLoop=1;jettySize=auto;html=1;exitX=0;exitY=0.5;exitDx=0;exitDy=0;entryX=0.5;entryY=0;entryDx=0;entryDy=0;" edge="1" parent="1" source="UqCWuO_ODy2JC3YevqKW-18" target="UqCWuO_ODy2JC3YevqKW-20">
          <mxGeometry relative="1" as="geometry" />
        </mxCell>
        <mxCell id="UqCWuO_ODy2JC3YevqKW-18" value="&lt;b&gt;i&amp;lt;N?&lt;/b&gt;" style="rhombus;whiteSpace=wrap;html=1;fillColor=#ffe6cc;strokeColor=#d79b00;" vertex="1" parent="1">
          <mxGeometry x="172.5" y="340" width="115" height="80" as="geometry" />
        </mxCell>
        <mxCell id="UqCWuO_ODy2JC3YevqKW-20" value="&lt;b&gt;Finish&lt;/b&gt;" style="ellipse;whiteSpace=wrap;html=1;fillColor=#fff2cc;strokeColor=#d6b656;" vertex="1" parent="1">
          <mxGeometry x="50" y="420" width="130" height="60" as="geometry" />
        </mxCell>
        <mxCell id="UqCWuO_ODy2JC3YevqKW-22" value="NO" style="text;html=1;strokeColor=none;fillColor=none;align=center;verticalAlign=middle;whiteSpace=wrap;rounded=0;" vertex="1" parent="1">
          <mxGeometry x="120" y="360" width="60" height="30" as="geometry" />
        </mxCell>
        <mxCell id="UqCWuO_ODy2JC3YevqKW-24" style="edgeStyle=orthogonalEdgeStyle;rounded=0;orthogonalLoop=1;jettySize=auto;html=1;exitX=1;exitY=0.5;exitDx=0;exitDy=0;entryX=0;entryY=0.5;entryDx=0;entryDy=0;" edge="1" parent="1" source="UqCWuO_ODy2JC3YevqKW-25" target="UqCWuO_ODy2JC3YevqKW-26">
          <mxGeometry relative="1" as="geometry" />
        </mxCell>
        <mxCell id="UqCWuO_ODy2JC3YevqKW-25" value="&lt;b&gt;Input numbers[i]&lt;/b&gt;" style="shape=parallelogram;perimeter=parallelogramPerimeter;whiteSpace=wrap;html=1;fixedSize=1;fillColor=#dae8fc;strokeColor=#6c8ebf;" vertex="1" parent="1">
          <mxGeometry x="269" y="420" width="140" height="50" as="geometry" />
        </mxCell>
        <mxCell id="UqCWuO_ODy2JC3YevqKW-26" value="&lt;b&gt;i++&lt;/b&gt;" style="rounded=0;whiteSpace=wrap;html=1;fillColor=#d5e8d4;strokeColor=#82b366;" vertex="1" parent="1">
          <mxGeometry x="439" y="420" width="120" height="50" as="geometry" />
        </mxCell>
        <mxCell id="UqCWuO_ODy2JC3YevqKW-27" value="YES" style="text;html=1;strokeColor=none;fillColor=none;align=center;verticalAlign=middle;whiteSpace=wrap;rounded=0;" vertex="1" parent="1">
          <mxGeometry x="279" y="360" width="60" height="30" as="geometry" />
        </mxCell>
        <mxCell id="UqCWuO_ODy2JC3YevqKW-28" style="edgeStyle=orthogonalEdgeStyle;rounded=0;orthogonalLoop=1;jettySize=auto;html=1;exitX=0.5;exitY=0;exitDx=0;exitDy=0;" edge="1" parent="1">
          <mxGeometry relative="1" as="geometry">
            <mxPoint x="230" y="330" as="targetPoint" />
            <mxPoint x="500" y="420" as="sourcePoint" />
            <Array as="points">
              <mxPoint x="500" y="330" />
            </Array>
          </mxGeometry>
        </mxCell>
        <mxCell id="UqCWuO_ODy2JC3YevqKW-35" style="edgeStyle=orthogonalEdgeStyle;rounded=0;orthogonalLoop=1;jettySize=auto;html=1;exitX=0.5;exitY=1;exitDx=0;exitDy=0;entryX=0.5;entryY=0;entryDx=0;entryDy=0;" edge="1" parent="1" target="UqCWuO_ODy2JC3YevqKW-32">
          <mxGeometry relative="1" as="geometry">
            <mxPoint x="347.5" y="610" as="sourcePoint" />
          </mxGeometry>
        </mxCell>
        <mxCell id="UqCWuO_ODy2JC3YevqKW-36" style="edgeStyle=orthogonalEdgeStyle;rounded=0;orthogonalLoop=1;jettySize=auto;html=1;exitX=0.5;exitY=1;exitDx=0;exitDy=0;entryX=0.5;entryY=0;entryDx=0;entryDy=0;" edge="1" parent="1" source="UqCWuO_ODy2JC3YevqKW-32" target="UqCWuO_ODy2JC3YevqKW-34">
          <mxGeometry relative="1" as="geometry" />
        </mxCell>
        <mxCell id="UqCWuO_ODy2JC3YevqKW-32" value="&lt;b&gt;int num : numbers&lt;/b&gt;" style="rounded=0;whiteSpace=wrap;html=1;fillColor=#d5e8d4;strokeColor=#82b366;" vertex="1" parent="1">
          <mxGeometry x="287.5" y="640" width="120" height="50" as="geometry" />
        </mxCell>
        <mxCell id="UqCWuO_ODy2JC3YevqKW-43" style="edgeStyle=orthogonalEdgeStyle;rounded=0;orthogonalLoop=1;jettySize=auto;html=1;exitX=1;exitY=0.5;exitDx=0;exitDy=0;" edge="1" parent="1" source="UqCWuO_ODy2JC3YevqKW-34">
          <mxGeometry relative="1" as="geometry">
            <mxPoint x="440" y="759.8823529411766" as="targetPoint" />
          </mxGeometry>
        </mxCell>
        <mxCell id="UqCWuO_ODy2JC3YevqKW-44" style="edgeStyle=orthogonalEdgeStyle;rounded=0;orthogonalLoop=1;jettySize=auto;html=1;exitX=0.5;exitY=1;exitDx=0;exitDy=0;entryX=0.5;entryY=0;entryDx=0;entryDy=0;" edge="1" parent="1" source="UqCWuO_ODy2JC3YevqKW-34" target="UqCWuO_ODy2JC3YevqKW-37">
          <mxGeometry relative="1" as="geometry" />
        </mxCell>
        <mxCell id="UqCWuO_ODy2JC3YevqKW-34" value="&lt;b&gt;num % 3 == 0?&lt;/b&gt;" style="rhombus;whiteSpace=wrap;html=1;fillColor=#ffe6cc;strokeColor=#d79b00;" vertex="1" parent="1">
          <mxGeometry x="287.5" y="720" width="115" height="80" as="geometry" />
        </mxCell>
        <mxCell id="UqCWuO_ODy2JC3YevqKW-45" style="edgeStyle=orthogonalEdgeStyle;rounded=0;orthogonalLoop=1;jettySize=auto;html=1;exitX=1;exitY=0.5;exitDx=0;exitDy=0;" edge="1" parent="1" source="UqCWuO_ODy2JC3YevqKW-37">
          <mxGeometry relative="1" as="geometry">
            <mxPoint x="440" y="859.8823529411766" as="targetPoint" />
          </mxGeometry>
        </mxCell>
        <mxCell id="UqCWuO_ODy2JC3YevqKW-46" style="edgeStyle=orthogonalEdgeStyle;rounded=0;orthogonalLoop=1;jettySize=auto;html=1;exitX=0.5;exitY=1;exitDx=0;exitDy=0;entryX=0;entryY=0.5;entryDx=0;entryDy=0;" edge="1" parent="1" source="UqCWuO_ODy2JC3YevqKW-37" target="UqCWuO_ODy2JC3YevqKW-42">
          <mxGeometry relative="1" as="geometry" />
        </mxCell>
        <mxCell id="UqCWuO_ODy2JC3YevqKW-37" value="&lt;b&gt;num % 3 == 1?&lt;/b&gt;" style="rhombus;whiteSpace=wrap;html=1;fillColor=#ffe6cc;strokeColor=#d79b00;" vertex="1" parent="1">
          <mxGeometry x="290" y="820" width="115" height="80" as="geometry" />
        </mxCell>
        <mxCell id="UqCWuO_ODy2JC3YevqKW-48" style="edgeStyle=orthogonalEdgeStyle;rounded=0;orthogonalLoop=1;jettySize=auto;html=1;exitX=1;exitY=0.5;exitDx=0;exitDy=0;" edge="1" parent="1" source="UqCWuO_ODy2JC3YevqKW-40" target="UqCWuO_ODy2JC3YevqKW-47">
          <mxGeometry relative="1" as="geometry" />
        </mxCell>
        <mxCell id="UqCWuO_ODy2JC3YevqKW-40" value="&lt;b&gt;ostacha0.push_back(num)&lt;/b&gt;" style="rounded=0;whiteSpace=wrap;html=1;fillColor=#d5e8d4;strokeColor=#82b366;" vertex="1" parent="1">
          <mxGeometry x="442.5" y="735" width="157.5" height="50" as="geometry" />
        </mxCell>
        <mxCell id="UqCWuO_ODy2JC3YevqKW-49" style="edgeStyle=orthogonalEdgeStyle;rounded=0;orthogonalLoop=1;jettySize=auto;html=1;exitX=1;exitY=0.5;exitDx=0;exitDy=0;" edge="1" parent="1" source="UqCWuO_ODy2JC3YevqKW-41">
          <mxGeometry relative="1" as="geometry">
            <mxPoint x="710" y="1020" as="targetPoint" />
          </mxGeometry>
        </mxCell>
        <mxCell id="UqCWuO_ODy2JC3YevqKW-41" value="&lt;b&gt;ostacha1.push_back(num)&lt;/b&gt;" style="rounded=0;whiteSpace=wrap;html=1;fillColor=#d5e8d4;strokeColor=#82b366;" vertex="1" parent="1">
          <mxGeometry x="442.5" y="840" width="157.5" height="50" as="geometry" />
        </mxCell>
        <mxCell id="UqCWuO_ODy2JC3YevqKW-50" style="edgeStyle=orthogonalEdgeStyle;rounded=0;orthogonalLoop=1;jettySize=auto;html=1;exitX=1;exitY=0.5;exitDx=0;exitDy=0;" edge="1" parent="1" source="UqCWuO_ODy2JC3YevqKW-42">
          <mxGeometry relative="1" as="geometry">
            <mxPoint x="710" y="1020" as="targetPoint" />
          </mxGeometry>
        </mxCell>
        <mxCell id="UqCWuO_ODy2JC3YevqKW-42" value="&lt;b&gt;ostacha2.push_back(num)&lt;/b&gt;" style="rounded=0;whiteSpace=wrap;html=1;fillColor=#d5e8d4;strokeColor=#82b366;" vertex="1" parent="1">
          <mxGeometry x="439" y="950" width="157.5" height="50" as="geometry" />
        </mxCell>
        <mxCell id="UqCWuO_ODy2JC3YevqKW-63" style="edgeStyle=orthogonalEdgeStyle;rounded=0;orthogonalLoop=1;jettySize=auto;html=1;exitX=0.5;exitY=1;exitDx=0;exitDy=0;entryX=0.5;entryY=0;entryDx=0;entryDy=0;" edge="1" parent="1" source="UqCWuO_ODy2JC3YevqKW-47" target="UqCWuO_ODy2JC3YevqKW-52">
          <mxGeometry relative="1" as="geometry" />
        </mxCell>
        <mxCell id="UqCWuO_ODy2JC3YevqKW-47" value="&lt;b&gt;sort(ostacha0.begin(), ostacha0.end())&lt;/b&gt;" style="rounded=0;whiteSpace=wrap;html=1;fillColor=#d5e8d4;strokeColor=#82b366;" vertex="1" parent="1">
          <mxGeometry x="650" y="1020" width="120" height="50" as="geometry" />
        </mxCell>
        <mxCell id="UqCWuO_ODy2JC3YevqKW-64" style="edgeStyle=orthogonalEdgeStyle;rounded=0;orthogonalLoop=1;jettySize=auto;html=1;exitX=0.5;exitY=1;exitDx=0;exitDy=0;entryX=0.5;entryY=0;entryDx=0;entryDy=0;" edge="1" parent="1" source="UqCWuO_ODy2JC3YevqKW-52" target="UqCWuO_ODy2JC3YevqKW-53">
          <mxGeometry relative="1" as="geometry" />
        </mxCell>
        <mxCell id="UqCWuO_ODy2JC3YevqKW-52" value="&lt;b&gt;sort(ostacha1.begin(), ostacha1.end(), greater())&lt;/b&gt;" style="rounded=0;whiteSpace=wrap;html=1;fillColor=#d5e8d4;strokeColor=#82b366;" vertex="1" parent="1">
          <mxGeometry x="650" y="1100" width="120" height="50" as="geometry" />
        </mxCell>
        <mxCell id="UqCWuO_ODy2JC3YevqKW-65" style="edgeStyle=orthogonalEdgeStyle;rounded=0;orthogonalLoop=1;jettySize=auto;html=1;exitX=0.5;exitY=1;exitDx=0;exitDy=0;entryX=0.5;entryY=0;entryDx=0;entryDy=0;" edge="1" parent="1" source="UqCWuO_ODy2JC3YevqKW-53" target="UqCWuO_ODy2JC3YevqKW-55">
          <mxGeometry relative="1" as="geometry" />
        </mxCell>
        <mxCell id="UqCWuO_ODy2JC3YevqKW-53" value="&lt;b&gt;sort(ostacha2.begin(), ostacha2.end())&lt;/b&gt;" style="rounded=0;whiteSpace=wrap;html=1;fillColor=#d5e8d4;strokeColor=#82b366;" vertex="1" parent="1">
          <mxGeometry x="650" y="1180" width="120" height="50" as="geometry" />
        </mxCell>
        <mxCell id="UqCWuO_ODy2JC3YevqKW-66" style="edgeStyle=orthogonalEdgeStyle;rounded=0;orthogonalLoop=1;jettySize=auto;html=1;exitX=0.5;exitY=1;exitDx=0;exitDy=0;entryX=0.5;entryY=0;entryDx=0;entryDy=0;" edge="1" parent="1" source="UqCWuO_ODy2JC3YevqKW-55" target="UqCWuO_ODy2JC3YevqKW-56">
          <mxGeometry relative="1" as="geometry" />
        </mxCell>
        <mxCell id="UqCWuO_ODy2JC3YevqKW-55" value="&lt;b&gt;vector result = ostacha0&lt;/b&gt;" style="rounded=0;whiteSpace=wrap;html=1;fillColor=#d5e8d4;strokeColor=#82b366;" vertex="1" parent="1">
          <mxGeometry x="650" y="1260" width="120" height="50" as="geometry" />
        </mxCell>
        <mxCell id="UqCWuO_ODy2JC3YevqKW-67" style="edgeStyle=orthogonalEdgeStyle;rounded=0;orthogonalLoop=1;jettySize=auto;html=1;exitX=0.5;exitY=1;exitDx=0;exitDy=0;entryX=0.5;entryY=0;entryDx=0;entryDy=0;" edge="1" parent="1" source="UqCWuO_ODy2JC3YevqKW-56" target="UqCWuO_ODy2JC3YevqKW-57">
          <mxGeometry relative="1" as="geometry" />
        </mxCell>
        <mxCell id="UqCWuO_ODy2JC3YevqKW-56" value="&lt;b&gt;result.insert(result.end(), ostacha1.begin(), ostacha1.end())&lt;/b&gt;" style="rounded=0;whiteSpace=wrap;html=1;fillColor=#d5e8d4;strokeColor=#82b366;" vertex="1" parent="1">
          <mxGeometry x="650" y="1340" width="120" height="50" as="geometry" />
        </mxCell>
        <mxCell id="UqCWuO_ODy2JC3YevqKW-68" style="edgeStyle=orthogonalEdgeStyle;rounded=0;orthogonalLoop=1;jettySize=auto;html=1;exitX=0.5;exitY=1;exitDx=0;exitDy=0;entryX=0.5;entryY=0;entryDx=0;entryDy=0;" edge="1" parent="1" source="UqCWuO_ODy2JC3YevqKW-57" target="UqCWuO_ODy2JC3YevqKW-58">
          <mxGeometry relative="1" as="geometry" />
        </mxCell>
        <mxCell id="UqCWuO_ODy2JC3YevqKW-57" value="&lt;b&gt;result.insert(result.end(), ostacha2.begin(), ostacha2.end())&lt;/b&gt;" style="rounded=0;whiteSpace=wrap;html=1;fillColor=#d5e8d4;strokeColor=#82b366;" vertex="1" parent="1">
          <mxGeometry x="650" y="1420" width="120" height="50" as="geometry" />
        </mxCell>
        <mxCell id="UqCWuO_ODy2JC3YevqKW-69" style="edgeStyle=orthogonalEdgeStyle;rounded=0;orthogonalLoop=1;jettySize=auto;html=1;exitX=0.5;exitY=1;exitDx=0;exitDy=0;entryX=0.5;entryY=0;entryDx=0;entryDy=0;" edge="1" parent="1" source="UqCWuO_ODy2JC3YevqKW-58" target="UqCWuO_ODy2JC3YevqKW-59">
          <mxGeometry relative="1" as="geometry" />
        </mxCell>
        <mxCell id="UqCWuO_ODy2JC3YevqKW-58" value="&lt;b&gt;auto elements = unique(result.begin(), result.end())&lt;/b&gt;" style="rounded=0;whiteSpace=wrap;html=1;fillColor=#d5e8d4;strokeColor=#82b366;" vertex="1" parent="1">
          <mxGeometry x="650" y="1500" width="120" height="50" as="geometry" />
        </mxCell>
        <mxCell id="UqCWuO_ODy2JC3YevqKW-70" style="edgeStyle=orthogonalEdgeStyle;rounded=0;orthogonalLoop=1;jettySize=auto;html=1;exitX=0.5;exitY=1;exitDx=0;exitDy=0;entryX=0.5;entryY=0;entryDx=0;entryDy=0;" edge="1" parent="1" source="UqCWuO_ODy2JC3YevqKW-59" target="UqCWuO_ODy2JC3YevqKW-62">
          <mxGeometry relative="1" as="geometry" />
        </mxCell>
        <mxCell id="UqCWuO_ODy2JC3YevqKW-59" value="&lt;b&gt;result.erase(elements, result.end())&lt;/b&gt;" style="rounded=0;whiteSpace=wrap;html=1;fillColor=#d5e8d4;strokeColor=#82b366;" vertex="1" parent="1">
          <mxGeometry x="650" y="1580" width="120" height="50" as="geometry" />
        </mxCell>
        <mxCell id="UqCWuO_ODy2JC3YevqKW-60" value="&lt;b style=&quot;border-color: var(--border-color);&quot;&gt;vector&amp;lt;int&amp;gt; sortedNumbers(vector&amp;lt;int&amp;gt; numbers)&lt;/b&gt;" style="ellipse;whiteSpace=wrap;html=1;fillColor=#fff2cc;strokeColor=#d6b656;" vertex="1" parent="1">
          <mxGeometry x="290" y="550" width="130" height="60" as="geometry" />
        </mxCell>
        <mxCell id="UqCWuO_ODy2JC3YevqKW-62" value="&lt;b style=&quot;border-color: var(--border-color);&quot;&gt;vector&amp;lt;int&amp;gt; sortedNumbers(vector&amp;lt;int&amp;gt; numbers)&lt;/b&gt;" style="ellipse;whiteSpace=wrap;html=1;fillColor=#fff2cc;strokeColor=#d6b656;" vertex="1" parent="1">
          <mxGeometry x="645" y="1660" width="130" height="60" as="geometry" />
        </mxCell>
        <mxCell id="UqCWuO_ODy2JC3YevqKW-71" value="YES" style="text;html=1;strokeColor=none;fillColor=none;align=center;verticalAlign=middle;whiteSpace=wrap;rounded=0;" vertex="1" parent="1">
          <mxGeometry x="384" y="735" width="60" height="30" as="geometry" />
        </mxCell>
        <mxCell id="UqCWuO_ODy2JC3YevqKW-72" value="YES" style="text;html=1;strokeColor=none;fillColor=none;align=center;verticalAlign=middle;whiteSpace=wrap;rounded=0;" vertex="1" parent="1">
          <mxGeometry x="390" y="830" width="60" height="30" as="geometry" />
        </mxCell>
        <mxCell id="UqCWuO_ODy2JC3YevqKW-73" value="NO" style="text;html=1;strokeColor=none;fillColor=none;align=center;verticalAlign=middle;whiteSpace=wrap;rounded=0;" vertex="1" parent="1">
          <mxGeometry x="300" y="790" width="60" height="30" as="geometry" />
        </mxCell>
        <mxCell id="UqCWuO_ODy2JC3YevqKW-74" value="NO" style="text;html=1;strokeColor=none;fillColor=none;align=center;verticalAlign=middle;whiteSpace=wrap;rounded=0;" vertex="1" parent="1">
          <mxGeometry x="300" y="890" width="60" height="30" as="geometry" />
        </mxCell>
      </root>
    </mxGraphModel>
  </diagram>
</mxfile>
